<?xml version="1.0" encoding="UTF-8"?>
<svg version="1.1" viewBox="0 0 1792 1856" width="1280" height="1280" xmlns="http://www.w3.org/2000/svg">
<path transform="translate(325)" d="m0 0 9 1h712l54 2 47 5 37 6 37 8 35 10 36 12 24 11 29 14 22 12 30 20 17 12 14 11 4 3v2l4 2 16 15 8 7 20 20 7 8 9 10 13 17 11 14 8 10 4-2 9-11 3-4h2l2-4 12-12 14-10 6-3 5 1 3 6v7l-7 9-20 20-7 8-10 10-5 4 1 5 11 21 13 28 14 38 7 24 7 30 5 30 5 43 1 12 1 27v35l-2 21-7 44-6 24-11 35-11 25-16 33-12 21-11 16-9 12-8 10-13 16-11 13-16 17-12 11-13 10-18 13-29 19-21 14 3 2 35 13 29 14 17 9 19 12 27 18 14 11 15 13 8 7 13 12 14 15 9 11 11 13 15 20 13 20 14 24 12 25 11 28 9 29 6 25 5 30 2 22v65l-2 34-3 28-5 27-9 37-8 26-10 29-12 26-13 27-10 18-12 19-11 16-13 17-8 11-12 14-46 46-11 9-19 14-17 12-17 11-17 10-29 15-31 15-28 11-36 12-38 10-45 9-27 4-18 2-15 1-29 1h-777l-30-1-20-2-17-4-26-9-17-9-12-9-14-12-17-17-11-14-7-10-5-10-5-12-3-7-4 1-12 11-30 30-13 10-5 3-4-2-2-4v-6l5-9 9-10 9-11 9-10 11-11 8-7 10-8 2-1 1-1545 2-26 4-17 11-27 9-14 11-14 17-17 13-10 14-10 18-10 20-8 14-5 17-3h13zm178 301v276l1 201h519l10-3 8-7 7-8 9-10 12-14 9-11 9-9 4-2h6l3 3 1 8-5 8-9 11-5 5-6 8-11 18-1 3 26-5 21-8 14-6 22-13 13-10 13-12 14-14 9-11 6-7 13-19 9-14 7-12 9-23 6-21 5-31v-13l-4 2-10 8-9 11-11 13-8 10-11 11v2l-4 2-12 4-8-4-1-4 5-5v-2l3-1 9-11 12-14 7-7 9-11 15-16 9-10 8-11 3-7v-9l-4-29-6-29-7-21-9-21-11-20-9-13-10-13-11-12-12-11-15-10-24-13-15-6-22-6-14-3-20-2zm0 772-1 261 3 1v-2l4-2 29-29 8-7 9-8 11-7 5-2h5l2 8-6 10-9 10-11 12-19 19-8 7-18 18-2 6-1 12-1 60v112h479l100-1 42-2 31-4 25-6 18-7 25-12 15-9 13-10 10-9 13-13 9-11 11-15 12-22 7-18 8-29 6-31 2-17 1-15v-32l-4-33-5-24-5-17-7-19-9-17-12-18-8-10-12-14-9-9-8-7-13-10-14-9-15-8-21-8-26-7-29-4-26-2h-309l-14 1-9 3-7 8-7 7-7 8-23 23-7 8-9 9-9 6-10 4h-4l-1-2v-7l7-11 10-12 7-8 12-14 17-17 3-4v-2z" fill="#FC1610"/>
<path transform="translate(325)" d="m0 0 9 1h712l54 2 47 5 37 6 37 8 35 10 36 12 24 11 29 14 22 12 30 20 17 12 14 11 4 3v2l4 2 16 15 8 7 20 20 7 8 9 10 7 9-2 1-2 4-12 14-9 10-11 13-8 8-7 8-12 13-7 8-24 26-7 8-15 16-11 12-9 10-7 8-7 7-7 8-15 16-17 17-7 8-32 34-13 13-6 7-6 5-1 2h-2l-5-24-7-21-9-21-11-20-9-13-10-13-11-12-11-10-15-10-24-13-15-6-22-6-14-3-20-2-561-1 1 276v201h469l-4 2-5 5-9 10-1 2h-2l-2 4-14 15-9 10-14 15-16 17-7 8-9 9-7 8-9 9-7 8-14 15-24 26-10 11-7 8-9 10-11 12-7 8-11 12-7 8-13 14-7 8-24 28-8 10-1 3h-202v211l-8 7-10 11h-2l-2 4-15 16-9 10-11 12-7 8-11 13-12 13-7 8-12 13-15 16-8 8-7 8-7 7-7 8-15 16-8 8-7 8-10 10-7 8-8 8-7 8-29 31-18 20-7 8-12 13-5 6h-2l-2 4-28 28-9 11-8 10-6 8-4 1v-1490l2-26 4-17 11-27 9-14 11-14 17-17 13-10 14-10 18-10 20-8 14-5 17-3h13z" fill="#0186D3"/>
<path transform="translate(501,1284)" d="m0 0h2v29l-1 14-13 17-10 11-9 11-12 13-15 16-40 40-7 8-12 12-7 8-12 12-7 8-14 15-9 10-11 12-7 8-7 7-7 8-8 8-7 8-15 16-7 8-21 21-1 2h-2l-2 4-14 14-7 8-13 15-9 11-18 18-8 7-9 8h-1v-39l2-2 4-2 7-10 9-11 12-13 22-22 1-2h2l2-4 10-10 7-8 11-12 7-8 22-24 15-16 11-12 16-17 7-7 7-8 11-11 7-8 29-31 8-8 7-8 7-7 7-8 10-11 7-8 13-15 10-11 7-8 15-16 9-10 5-5 12-13z" fill="#041117"/>
<path transform="translate(973,778)" d="m0 0h47l-6 8-37 37-7 8-7 7-7 8-9 9-7 8-11 12-14 15-7 7-7 8-21 21-7 8-14 14-7 8-16 16-7 8-10 10-7 8-8 8-9 11-10 11-7 8-21 21-11 9-9 7h-32l1-4 11-13 9-11 13-15 12-13 7-8 13-14 7-8 12-13 7-8 11-12 7-8 9-10 24-26 14-15 9-10 8-8 7-8 9-9 7-8 12-13 7-7 7-8 15-16 9-11h2l2-4 8-9h2l2-4z" fill="#041117"/>
<path transform="translate(1501,201)" d="m0 0h3l10 13 9 12-3 5-13 16-9 11-9 10-48 48-7 8-23 23-7 8-15 16-11 12-9 10-10 11-7 8-12 13-9 10-8 8-7 8-9 9-9 11-11 11-7 8-13 12-10 8-4 2-2-9-3-22 1-7 11-10 7-8 16-16 7-8 9-9 7-8 16-17 17-17 7-8 15-16 12-13 7-8 24-26 11-12 7-8 16-17 7-8 9-10 12-13 9-10 7-8 12-14z" fill="#041016"/>
<path transform="translate(1501,201)" d="m0 0h3l10 13 9 12-3 5-13 16-9 11-9 10-48 48-7 8-23 23-7 8-15 16-11 12-9 10-3 3h-3l-2 4-6 7-5 5h-2l-2 4-7 8-7 6-6 7h-2l-2 4-6 5-6 7h-2l-2 4-7 6-8 2v-3l6-8 4-5h2v-2h2l2-4h2v-2h2v-2l5-5 3-1v-2l8-7 12-12 4-2 1-3 9-9h2l2-4 7-7 1-2h2v-2l16-16 7-8 15-16 8-10 5-5 3-4h2l2-4 6-9 5-5 2-3h2l2-5 6-7 1-3h2l2-5 3-4h2l2-5 3-6 4-5v-5l-5 4h-3v2l-8 6-17 17-6 5-3 4h-2l-2 4-10 10h-2v2h-2l-2 4-15 15-1 2h-2l-2 4-9 9-7 8-12 12-6 7h-2l-2 4-6 7-7 6-7 8-16 16-6 7h-2l-2 4-10 11-5 4-7 8-13 13-7 8-7 6-3 6h-1l1-7 11-10 7-8 16-16 7-8 9-9 7-8 16-17 17-17 7-8 15-16 12-13 7-8 24-26 11-12 7-8 16-17 7-8 9-10 12-13 9-10 7-8 12-14z" fill="#092E3A"/>
<path transform="translate(947,839)" d="m0 0h3l-1 5-4 1-1 4-10 11h-2l-1 2-5 5-3 5h-2v2h-2v3l-9 6-4 9-3 1-2 5h-2l-1 7-2 5-16 16-7 8-14 14-7 8-16 16-8 7-13 13-1 2h-2l-2 4-10 10-7 8-8 8-5 4-3 4-8 6-11 7-1-3 6-8h2l2-4h2l2-4 15-16 50-50 1-2h2v-2h2v-2h2l2-4h2l2-5 5-5 10-14h2l2-4 4-5h2l1-4h2v-4h2v-2h2l2-4 5-7 7-6 6-7 5-5 6-7 9-9h2l1-3 6-5 5-5 8-6z" fill="#092E3A"/>
<path transform="translate(1499,197)" d="m0 0h2l2 4h-2l-2 4-12 14-9 10-11 13-8 8-7 8-12 13-7 8-24 26-7 8-15 16-11 12-9 10-7 8-7 7-7 8-15 16-17 17-7 8-32 34-13 13-6 7-6 5-1 2h-2v-6l8-7h2v-2l4-4h2v-2h2l2-4 4-2v-2h2l2-4 12-14 3-3 1-3 5-4 4-6 3-3h2l2-4 7-7 7-8h2v-3l6-5 2-3h2l2-5 5-6 5-5 3-4h2l2-4h2l1-3 7-6 5-6 5-5 3-4h2l2-4 4-5h2l2-4 10-12h2l2-4 14-15 7-8 16-16 5-7h2v-2h2l2-4 5-6h2l2-4 4-5h2l2-4 7-8 4-1 2-4 8-10h2l2-4z" fill="#0372B0"/>
<path transform="translate(1504,204)" d="m0 0 3 1 13 17 3 5-11 14-9 11-11 13-33 33-1-2 4-7 3-3h2l2-4 5-8 8-7 5-6h2l2-5h2l2-4 3-5h2l3-11-4 1v-3l-9 2 1-7 2-2 3-9 5-7z" fill="#041017"/>
<path transform="translate(853,297)" d="m0 0h152l76 2 5 3v1h-10l-12-1-32-1-350-1v-1l68-1z" fill="#0372B0"/>
<path transform="translate(949,779)" d="m0 0h20l-3 5-5 5-7 8h-2l-2 4-14 15-9 10-14 15-16 17-7 8-9 9-7 8-7 7v-3l5-6 5-5 11-13 4-5h2v-2h2l2-4 6-7h2l2-4 2-3h2l2-4 8-9 1-2h2l2-5 5-6 9-18 4-9z" fill="#0472B0"/>
<path transform="translate(500,1272)" d="m0 0h2l1 12-8 7-10 11h-2l-2 4-15 16-9 10-11 12-7 8-2 1 1-4 5-5 7-8 3-6h2l1-6 6-12 6-7 5-5 4-5 8-7 8-9 5-6z" fill="#0472B0"/>
<path transform="translate(969,779)" d="m0 0 3 1-10 13-3 9-8 8-1 2h-2v2h-2v2h-2l-2 4-3 1-2 4-3 3h-3l-1 4h-3l-2 4h-3v2l-6 5h-2v2l-7 6-26 26v-3l14-14 7-8 12-13 7-7 7-8 15-16 9-11h2l2-4 8-9h2l2-4z" fill="#0A2F3B"/>
<path transform="translate(781,982)" d="m0 0v3l-8 8-7 8-9 10-12 13-7 8-24 28-8 10-1 3-8-1 1-4h2l1-4 5-7h2l2-4 5-7 10-8 7-4 12-13 7-8 3-3h2l2-4 11-12h2l2-4z" fill="#0472B0"/>
<path transform="translate(250,1554)" d="m0 0v3l-16 17-14 16h-2l-2 4-28 28-9 11-8 10-6 8-4 1v-27h1l2 10 2 4 5-3 5-8 8-7 12-11 2-3h2l2-4 6-5 6-7h2l1-3 7-6 1-2h2l2-5 20-20z" fill="#0472B0"/>
<path transform="translate(399,1434)" d="m0 0h1v5l-16 16-8 7-16 16-5 6-6 5h-3l2-5 16-16 7-8 11-11h2l1-3 8-7z" fill="#092D38"/>
<path transform="translate(1676,1254)" d="m0 0 2 4 1 13v65l-1 21-2 3z" fill="#12141B"/>
<path transform="translate(204,1605)" d="m0 0v3l-14 14-7 8-9 12-10 14-1 1-1 24h-1v-29l2-2 4-2 7-10 9-11 12-13z" fill="#0A2F3B"/>
<path transform="translate(1284,440)" d="m0 0v3l-18 18-7 8-7 6-3 6h-1l1-7 16-15z" fill="#092F3C"/>
</svg>
