<svg
                    width="15"
                    height="11"
                    viewBox="0 0 15 11"
                    fill="none"
                    xmlns="http://www.w3.org/2000/svg"
                >
                    <path
                        d="M14.0625 0.357422H0.9375C0.68886 0.357422 0.450403 0.447724 0.274587 0.608462C0.098772 0.769201 0 0.987209 0 1.21453V9.78559C0 10.0129 0.098772 10.2309 0.274587 10.3917C0.450403 10.5524 0.68886 10.6427 0.9375 10.6427H14.0625C14.3111 10.6427 14.5496 10.5524 14.7254 10.3917C14.9012 10.2309 15 10.0129 15 9.78559V1.21453C15 0.987209 14.9012 0.769201 14.7254 0.608462C14.5496 0.447724 14.3111 0.357422 14.0625 0.357422ZM13.3406 9.78559H1.71562L4.99687 6.68287L4.32188 6.08718L0.9375 9.28847V1.86593L6.76406 7.16713C6.93972 7.32677 7.17733 7.41637 7.425 7.41637C7.67267 7.41637 7.91028 7.32677 8.08594 7.16713L14.0625 1.73308V9.23276L10.6125 6.07861L9.95156 6.68287L13.3406 9.78559ZM1.55156 1.21453H13.3031L7.425 6.55859L1.55156 1.21453Z"
                        fill="white"
                    />
                </svg>