<svg
                    width="15"
                    height="15"
                    viewBox="0 0 15 15"
                    fill="none"
                    xmlns="http://www.w3.org/2000/svg"
                >
                    <path
                        fill-rule="evenodd"
                        clip-rule="evenodd"
                        d="M4.73081 10.2031C7.61456 13.029 10.2868 13.3385 11.0713 13.3671C12.0193 13.4009 12.9868 12.6425 13.4053 11.8656C12.7378 11.0983 11.8686 10.503 10.9161 9.85772C10.3551 10.4075 9.66356 11.4291 8.74106 11.063C8.21681 10.8565 6.92231 10.2722 5.79131 9.16319C4.65956 8.05487 4.06406 6.78634 3.85181 6.27334C3.47831 5.36861 4.52381 4.68878 5.08556 4.1383C4.42706 3.19021 3.83006 2.31635 3.04856 1.69531C2.24456 2.10688 1.46606 3.04763 1.50131 3.9891C1.53056 4.75787 1.84631 7.37651 4.73081 10.2031ZM11.0158 14.8356C9.93581 14.7966 6.87506 14.3828 3.66956 11.2416C0.464807 8.10118 0.0425565 5.10256 0.0020565 4.04349C-0.0579435 2.42953 1.20356 0.861871 2.66081 0.249654C2.83629 0.175399 3.02846 0.147128 3.21845 0.167615C3.40845 0.188102 3.58975 0.256642 3.74456 0.366512C4.95056 1.22861 5.78231 2.53463 6.49706 3.55769C6.64574 3.77042 6.71386 4.0274 6.68962 4.28415C6.66538 4.5409 6.5503 4.78127 6.36431 4.96365L5.34731 5.96099C5.58356 6.47178 6.06431 7.35226 6.85181 8.12396C7.63931 8.89566 8.53781 9.36677 9.05981 9.59828L10.0761 8.60168C10.2629 8.41903 10.5092 8.30642 10.7721 8.28345C11.0349 8.26049 11.2977 8.32863 11.5146 8.476C12.5796 9.1992 13.8306 10.0025 14.7426 11.1468C14.8638 11.2996 14.9409 11.4815 14.9658 11.6735C14.9908 11.8655 14.9626 12.0606 14.8843 12.2382C14.2566 13.6736 12.6681 14.8951 11.0158 14.8356Z"
                        fill="white"
                    />
                </svg>